<?xml version="1.0" encoding="UTF-8"?>
<svg xmlns="http://www.w3.org/2000/svg" xmlns:xlink="http://www.w3.org/1999/xlink" width="100pt" height="100pt" viewBox="0 0 100 100" version="1.1">
<g id="surface1">
<path style=" stroke:none;fill-rule:nonzero;fill:rgb(0.784314%,45.490196%,74.509804%);fill-opacity:1;" d="M 91.148438 64.339844 C 90.382812 63.402344 89.445312 62.636719 88.253906 62.210938 C 86.296875 61.445312 84.171875 61.617188 82.382812 62.636719 L 70.46875 69.53125 C 70.382812 70.554688 70.210938 71.574219 69.871094 72.511719 C 67.828125 78.636719 61.191406 82.128906 54.980469 80.425781 L 43.234375 77.277344 C 41.789062 76.9375 40.9375 75.402344 41.277344 73.957031 C 41.617188 72.511719 43.148438 71.660156 44.597656 72 L 56.511719 75.234375 C 60.085938 76.171875 63.828125 74.042969 64.851562 70.46875 C 65.789062 66.894531 63.660156 63.148438 60.085938 62.128906 L 41.871094 57.277344 C 38.382812 56.339844 34.722656 56.851562 31.574219 58.636719 L 8.765625 71.660156 C 7.488281 72.425781 7.0625 74.042969 7.746094 75.402344 L 19.0625 94.980469 C 19.402344 95.574219 20 96.085938 20.679688 96.253906 C 21.363281 96.425781 22.128906 96.339844 22.722656 96 L 32.9375 90.128906 L 54.894531 91.574219 C 57.53125 91.746094 60.253906 91.148438 62.554688 89.789062 L 89.105469 74.46875 C 92.679688 72.339844 93.703125 67.660156 91.148438 64.339844 Z M 91.148438 64.339844 "/>
<path style=" stroke:none;fill-rule:nonzero;fill:rgb(0.784314%,45.490196%,74.509804%);fill-opacity:1;" d="M 31.914062 47.148438 L 68.085938 47.148438 C 69.617188 47.148438 70.808594 45.957031 70.808594 44.425781 C 70.808594 37.191406 67.148438 30.894531 61.53125 27.148438 C 58.554688 30.042969 54.46875 31.746094 49.957031 31.746094 C 45.445312 31.746094 41.445312 29.957031 38.382812 27.148438 C 32.765625 30.894531 29.105469 37.277344 29.105469 44.425781 C 29.191406 45.871094 30.382812 47.148438 31.914062 47.148438 Z M 31.914062 47.148438 "/>
<path style=" stroke:none;fill-rule:nonzero;fill:rgb(0.784314%,45.490196%,74.509804%);fill-opacity:1;" d="M 61.277344 14.980469 C 61.277344 21.230469 56.207031 26.296875 49.957031 26.296875 C 43.707031 26.296875 38.636719 21.230469 38.636719 14.980469 C 38.636719 8.726562 43.707031 3.660156 49.957031 3.660156 C 56.207031 3.660156 61.277344 8.726562 61.277344 14.980469 Z M 61.277344 14.980469 "/>
</g>
</svg>
