<?xml version="1.0" encoding="UTF-8"?>
<svg xmlns="http://www.w3.org/2000/svg" xmlns:xlink="http://www.w3.org/1999/xlink" width="100pt" height="100pt" viewBox="0 0 100 100" version="1.1">
<g id="surface1">
<path style=" stroke:none;fill-rule:nonzero;fill:rgb(0.784314%,45.490196%,74.509804%);fill-opacity:1;" d="M 50 0 C 40.300781 0 32.398438 8.101562 32.398438 17.800781 C 32.398438 27.5 40.300781 35.398438 50 35.398438 C 59.699219 35.398438 67.601562 27.5 67.601562 17.800781 C 67.601562 8.101562 59.699219 0 50 0 Z M 50 0 "/>
<path style=" stroke:none;fill-rule:nonzero;fill:rgb(0.784314%,45.490196%,74.509804%);fill-opacity:1;" d="M 55.898438 35.398438 L 44.101562 35.398438 C 40 35.398438 36 36.5 32.300781 38.300781 C 38.5 40 44.300781 42.398438 49.898438 45.601562 C 55.5 42.398438 61.300781 40 67.5 38.300781 C 64 36.398438 60 35.398438 55.898438 35.398438 Z M 55.898438 35.398438 "/>
<path style=" stroke:none;fill-rule:nonzero;fill:rgb(0.784314%,45.490196%,74.509804%);fill-opacity:1;" d="M 94.101562 52.898438 C 90.898438 52.898438 88.199219 55.5 88.199219 58.800781 L 88.199219 70.5 C 88.199219 73.699219 90.800781 76.398438 94.101562 76.398438 C 97.398438 76.398438 100 73.800781 100 70.5 L 100 58.800781 C 100 55.5 97.398438 52.898438 94.101562 52.898438 Z M 94.101562 52.898438 "/>
<path style=" stroke:none;fill-rule:nonzero;fill:rgb(0.784314%,45.490196%,74.509804%);fill-opacity:1;" d="M 5.898438 52.898438 C 2.699219 52.898438 0 55.5 0 58.800781 L 0 70.5 C 0 73.699219 2.601562 76.398438 5.898438 76.398438 C 9.199219 76.398438 11.800781 73.800781 11.800781 70.5 L 11.800781 58.800781 C 11.699219 55.5 9.101562 52.898438 5.898438 52.898438 Z M 5.898438 52.898438 "/>
<path style=" stroke:none;fill-rule:nonzero;fill:rgb(0.784314%,45.490196%,74.509804%);fill-opacity:1;" d="M 8.800781 41.199219 C 7.199219 41.199219 5.898438 42.5 5.898438 44.101562 L 5.898438 47 C 12.398438 47 17.601562 52.300781 17.601562 58.699219 L 17.601562 70.398438 C 17.601562 76.898438 12.300781 82.101562 5.898438 82.101562 L 5.898438 85 C 5.898438 86.601562 7.199219 87.898438 8.800781 87.898438 C 23.800781 87.898438 35.800781 92.601562 47.101562 99.800781 L 47.101562 50.699219 C 35.800781 44.199219 23.601562 41.199219 8.800781 41.199219 Z M 8.800781 41.199219 "/>
<path style=" stroke:none;fill-rule:nonzero;fill:rgb(0.784314%,45.490196%,74.509804%);fill-opacity:1;" d="M 94.101562 47.101562 L 94.101562 44.199219 C 94.101562 42.601562 92.800781 41.300781 91.199219 41.300781 C 76.398438 41.300781 64.199219 44.300781 52.898438 50.800781 L 52.898438 100 C 64.199219 92.800781 76.199219 88.101562 91.199219 88.101562 C 92.800781 88.101562 94.101562 86.800781 94.101562 85.199219 L 94.101562 82.300781 C 87.601562 82.300781 82.398438 77 82.398438 70.601562 L 82.398438 58.800781 C 82.398438 52.300781 87.699219 47.101562 94.101562 47.101562 Z M 94.101562 47.101562 "/>
</g>
</svg>
