<?xml version="1.0" encoding="UTF-8"?>
<svg xmlns="http://www.w3.org/2000/svg" xmlns:xlink="http://www.w3.org/1999/xlink" width="100pt" height="100pt" viewBox="0 0 100 100" version="1.1">
<g id="surface1">
<path style=" stroke:none;fill-rule:nonzero;fill:rgb(0.784314%,45.490196%,74.509804%);fill-opacity:1;" d="M 85.398438 14.601562 C 75.898438 5.199219 63.398438 0 50 0 C 36.601562 0 24.101562 5.199219 14.601562 14.601562 C 5.199219 24.101562 0 36.601562 0 50 C 0 63.398438 5.199219 75.898438 14.601562 85.398438 C 24.101562 94.898438 36.601562 100 50 100 C 63.398438 100 75.898438 94.800781 85.398438 85.398438 C 94.898438 76 100 63.398438 100 50 C 100 36.601562 94.800781 24.101562 85.398438 14.601562 Z M 50 94.101562 C 25.699219 94.101562 5.898438 74.300781 5.898438 50 C 5.898438 25.699219 25.699219 5.898438 50 5.898438 C 74.300781 5.898438 94.101562 25.699219 94.101562 50 C 94.101562 74.300781 74.300781 94.101562 50 94.101562 Z M 50 94.101562 "/>
<path style=" stroke:none;fill-rule:nonzero;fill:rgb(0.784314%,45.490196%,74.509804%);fill-opacity:1;" d="M 50 12.5 C 29.300781 12.5 12.5 29.300781 12.5 50 C 12.5 70.699219 29.300781 87.5 50 87.5 C 70.699219 87.5 87.5 70.699219 87.5 50 C 87.5 29.300781 70.699219 12.5 50 12.5 Z M 50 81.601562 C 32.601562 81.601562 18.398438 67.398438 18.398438 50 C 18.398438 32.601562 32.601562 18.398438 50 18.398438 C 67.398438 18.398438 81.601562 32.601562 81.601562 50 C 81.601562 67.398438 67.398438 81.601562 50 81.601562 Z M 50 81.601562 "/>
<path style=" stroke:none;fill-rule:nonzero;fill:rgb(0.784314%,45.490196%,74.509804%);fill-opacity:1;" d="M 50 26 C 36.800781 26 26 36.800781 26 50 C 26 63.199219 36.699219 74 50 74 C 63.300781 74 74 63.300781 74 50 C 74 36.699219 63.199219 26 50 26 Z M 50 68.101562 C 40 68.101562 31.898438 60 31.898438 50 C 31.898438 40 40 31.898438 50 31.898438 C 60 31.898438 68.101562 40 68.101562 50 C 68.101562 60 60 68.101562 50 68.101562 Z M 50 68.101562 "/>
<path style=" stroke:none;fill-rule:nonzero;fill:rgb(0.784314%,45.490196%,74.509804%);fill-opacity:1;" d="M 50 38.101562 C 43.5 38.101562 38.101562 43.398438 38.101562 50 C 38.101562 56.601562 43.5 61.898438 50 61.898438 C 56.5 61.898438 61.898438 56.5 61.898438 50 C 61.898438 43.5 56.5 38.101562 50 38.101562 Z M 50 56 C 46.699219 56 44 53.300781 44 50 C 44 46.699219 46.699219 44 50 44 C 53.300781 44 56 46.699219 56 50 C 56 53.300781 53.300781 56 50 56 Z M 50 56 "/>
</g>
</svg>
