<svg id="Layer_1" data-name="Layer 1" xmlns="http://www.w3.org/2000/svg" xmlns:xlink="http://www.w3.org/1999/xlink" viewBox="0 0 138.5 52.54"><defs><style>.cls-1{fill:#f7d679;}.cls-2,.cls-3,.cls-6{isolation:isolate;}.cls-3{font-size:16px;fill:#c4cace;font-family:Arial-BoldMT, Arial;}.cls-3,.cls-6{font-weight:700;}.cls-4{clip-path:url(#clip-path);}.cls-5{clip-path:url(#clip-path-2);}.cls-6{font-size:24px;fill:#333;font-family:AvenirNextLTPro-Bold, Avenir Next LT Pro;letter-spacing:-0.01em;}</style><clipPath id="clip-path" transform="translate(3.9 4.28)"><polygon class="cls-1" points="3.4 26.5 109.97 24.26 108.85 1.49 4.34 3.48 3.4 26.5"/></clipPath><clipPath id="clip-path-2" transform="translate(3.9 4.28)"><path class="cls-1" d="M2.31,20.63v0ZM43.6,2.34h-.05l1.91,0h0ZM8.5,26.6h.82l-.61,0H8.1Zm31.61.06c-2.65.1-3.17.11-5.79.13,3.42-.12,3.42-.12,5.79-.13Zm43.79-1-2.7-.06c-.44,0-.4,0,.36-.06.58,0,1.37,0,2.06,0,.24,0,.59,0,.69,0,.64,0,1.29.06,1.77.1.1,0-.48,0-.78.05H83.9Zm-35,.93c3.29-.11,6.9-.18,10.5-.25.3,0,.84,0,.93,0a1.81,1.81,0,0,1-.44,0c-3.37.09-6.81.18-10.45.25l-2.56,0Zm-6.53-25,5-.1c.52,0,1.13,0,1.57,0a8.32,8.32,0,0,1-1.41.06l-4,.08c-1.65,0-3.32.07-5.18.08L37,1.55l1.82-.06,15-.27H55.2c-1.34.07-3.11.09-4.64.11L46,1.41c-1.61,0-3.26.05-5.45.11ZM74.83,26.28c-1,0-1.46,0-.91,0,1.4-.08,3.88-.12,5-.08l.66,0,8.2-.14,2.73,0c3.23-.07,5-.17,4.42-.25l-.36,0c-.22-.05.41-.09,1.91-.13l2.66-.06c1.39,0,1.88-.09.94-.1l-5.6-.06-4.37.12L88,25.39c4.73-.21,9.65-.39,16.5-.5,2.28,0,4.44-.12,5.22-.19a5.53,5.53,0,0,0-1.15,0l-1.35,0-13,.28c-2.58.06-5.07.09-7.93.11.5,0,.71-.06,1.21-.07l4.26-.12L96,24.78c.92,0,1.08-.06.41-.07-1.24,0-2.79,0-4.52,0l-4.06.13c-2.11.07-4.36.14-6.82.18-5.38.09-10.37.24-15.63.35-1.41,0-2.62.06-3.37.12s-2.52.1-4.13.14l-6.75.15h-.88c-.44,0-1.13,0-1.09,0s.63-.05,1.1-.06l2.24,0c2.3,0,3.79-.08,4.74-.15l1-.06c4.56-.09,8-.22,11.55-.35.54,0,1.58-.05.73-.07l-2.75.08-2.43.08c-3.24.06-6.12.15-9.18.23l-4,.09c-1.86.05-3.3.06-3.93,0l-.67,0c-1.15,0-2.27,0-4,0-2.58.08-4.87.16-6,.25-.69.06-2,.11-3.71.15-5,.14-9.74.29-15.17.39l-.89,0c-2.09.06-4.06.09-6.13.09-1.7,0-3.58,0-5.1.11l-1.72.06-1.2,0v-.34c0-.28,0-.56,0-.85v-1c0-.63,0-1.22-.09-1.69-.12-1.46-.16-3-.19-4.77l0-1.34c-.1-2.92-.14-5.88-.2-8.84L3.08,3l4.7-.08,5.16-.1,3.57,0c.53,0,1,0,1.11,0s-.52,0-1,.06c-.77,0-2,0-2.47.07-2,.1-4.95.16-7.23.26H4.77l-1.29,0,0,1c.05,1.24.06,2.5,0,3.66,0,1.46,0,3,0,4.48a2.3,2.3,0,0,0,.11.94c.17.05.24-.83.21-2.81l0-.81c0-2-.09-4-.14-6.1,0-.07,0-.14-.07-.2l.12,0,.32,0,.91,0,2.39,0c1.85,0,3.73,0,5.71-.06,2.58,0,5.2-.1,7.72-.13C24.52,3,28.09,3,31.72,2.87l9-.19,11.78-.23,16.39-.27L76.67,2,76.31,2c1.39-.05,2.93-.09,4.64-.12l9-.18c5-.1,9.83-.22,14.91-.3l3.88-.07.18,11c0,1.43.06,2.87,0,4.26,0,.32,0,.71,0,1.06,0,.55.07.9.11.68a9.32,9.32,0,0,0,.06-2.11c0-1.57-.07-3,0-4.45,0-.29,0-.8,0-1a9,9,0,0,1,0-1.56c0-.57,0-1.32,0-2S109,5.39,109,4.53c0-1.11,0-2.23,0-3.35l-13.52.24L69,1.87,63.11,2c-1.65,0-3.23,0-4.85.09-.63,0-1.5,0-1.81,0L57.85,2l15.78-.33L109,1h.27c.08,3.05.16,6.09.23,9.1a38.19,38.19,0,0,0,.32,4.54,13.68,13.68,0,0,1,.15,1.57l.16,3c0-.41,0-.6.06-.89,0-1.11.07-1.68.18-1.46s.11-.24.15-.76.1-1.1.19-1c0,.54,0,1,.06,1.53q.07,3.2.17,6.41c.06,2.36.13,2.74.29,1.5,0-.13,0-.34.05-.61,0-.85-.05-1.73-.07-2.6,0-1.06-.07-2.12-.1-3.17-.07-4.18-.26-8.07-.39-12.09,0-1.14-.06-1.2-.19-.86,0-.72-.05-1.44-.08-2.16,0-.92-.05-1.84-.08-2.76L103.9.46,98.34.55l-1.06,0c-.63,0-2,0-3.61,0l-5,.09-5,.09c-1.72,0-3.3.06-4.92.07-3,0-5.9.06-8.4.18-1.68,0-2.64-.08-5.57,0L66,1c-2.24.07-4.4.12-6.59.12s-4.5,0-7,.08c-4,.07-8,.13-9.53,0h-1l-2,0c-6.9.12-13.3.31-20.07.45l-4.89.11c-1.91,0-3.76.08-5.57.12l-5.53.14L1.5,2.12c0,.68.05,1.35.08,2,0,.45,0,.89.07,1.34,0,.89.09,1.78.14,2.67a16.45,16.45,0,0,0,.26,2.33c0,.31.07.62.08.93,0,.92.08,1.87.11,2.83s.06,2.12.09,3.19a6.07,6.07,0,0,1-.08,1.7,5.26,5.26,0,0,0-.12,1.12c0,.09,0,0-.07.07C2,20,2,19.57,2,19.09c0,.32-.05.49-.05.66,0,1.47,0,3,.11,4.4,0,.42,0,1,.07,1.51s0,.71,0,1,.05.69.07,1l.51,0,1.78,0c.11,0,.15,0,.15.05s0,0-.2,0c-.37,0-1.15.07-2.46.1,0-.3,0-.67-.05-1.09,0-.61-.05-1.31-.07-2,0-1.23-.08-2.23-.17-3.1,0-.44-.08-1-.11-1.53,0-.25-.05-.4-.08-.62a24,24,0,0,0,0,2.42l.09,2.64c0,1.14.06,2.28.1,3.43l9.81-.21.88,0L25,27.42c4.09-.08,8.13-.15,11.9-.27l5.2-.14c3.51,0,7.54-.05,11.35-.15,4.17-.1,8.37-.17,12.6-.26l10.78-.23a22,22,0,0,0,2.57-.12l.29-.06-4.91.09Z"/></clipPath></defs><title>HERUPS</title><g id="Group_6290" data-name="Group 6290"><g id="SQUAREFEET" class="cls-2"><text class="cls-3" transform="translate(25.53 46.52) rotate(-0.99)">EMPOWERING</text></g><g id="Group_6289" data-name="Group 6289"><polygon class="cls-1" points="7.29 30.78 113.87 28.53 112.75 5.76 8.24 7.76 7.29 30.78"/><g class="cls-4"><g id="Group_6287" data-name="Group 6287"><path id="Path_8053" data-name="Path 8053" class="cls-1" d="M-3.29,32l118.17-2-.55-32.25L-3.83-.25Z" transform="translate(3.9 4.28)"/></g></g><path class="cls-1" d="M2.31,20.63v0ZM43.6,2.34h-.05l1.91,0h0ZM8.5,26.6h.82l-.61,0H8.1Zm31.61.06c-2.65.1-3.17.11-5.79.13,3.42-.12,3.42-.12,5.79-.13Zm43.79-1-2.7-.06c-.44,0-.4,0,.36-.06.58,0,1.37,0,2.06,0,.24,0,.59,0,.69,0,.64,0,1.29.06,1.77.1.1,0-.48,0-.78.05H83.9Zm-35,.93c3.29-.11,6.9-.18,10.5-.25.3,0,.84,0,.93,0a1.81,1.81,0,0,1-.44,0c-3.37.09-6.81.18-10.45.25l-2.56,0Zm-6.53-25,5-.1c.52,0,1.13,0,1.57,0a8.32,8.32,0,0,1-1.41.06l-4,.08c-1.65,0-3.32.07-5.18.08L37,1.55l1.82-.06,15-.27H55.2c-1.34.07-3.11.09-4.64.11L46,1.41c-1.61,0-3.26.05-5.45.11ZM74.83,26.28c-1,0-1.46,0-.91,0,1.4-.08,3.88-.12,5-.08l.66,0,8.2-.14,2.73,0c3.23-.07,5-.17,4.42-.25l-.36,0c-.22-.05.41-.09,1.91-.13l2.66-.06c1.39,0,1.88-.09.94-.1l-5.6-.06-4.37.12L88,25.39c4.73-.21,9.65-.39,16.5-.5,2.28,0,4.44-.12,5.22-.19a5.53,5.53,0,0,0-1.15,0l-1.35,0-13,.28c-2.58.06-5.07.09-7.93.11.5,0,.71-.06,1.21-.07l4.26-.12L96,24.78c.92,0,1.08-.06.41-.07-1.24,0-2.79,0-4.52,0l-4.06.13c-2.11.07-4.36.14-6.82.18-5.38.09-10.37.24-15.63.35-1.41,0-2.62.06-3.37.12s-2.52.1-4.13.14l-6.75.15h-.88c-.44,0-1.13,0-1.09,0s.63-.05,1.1-.06l2.24,0c2.3,0,3.79-.08,4.74-.15l1-.06c4.56-.09,8-.22,11.55-.35.54,0,1.58-.05.73-.07l-2.75.08-2.43.08c-3.24.06-6.12.15-9.18.23l-4,.09c-1.86.05-3.3.06-3.93,0l-.67,0c-1.15,0-2.27,0-4,0-2.58.08-4.87.16-6,.25-.69.06-2,.11-3.71.15-5,.14-9.74.29-15.17.39l-.89,0c-2.09.06-4.06.09-6.13.09-1.7,0-3.58,0-5.1.11l-1.72.06-1.2,0v-.34c0-.28,0-.56,0-.85v-1c0-.63,0-1.22-.09-1.69-.12-1.46-.16-3-.19-4.77l0-1.34c-.1-2.92-.14-5.88-.2-8.84L3.08,3l4.7-.08,5.16-.1,3.57,0c.53,0,1,0,1.11,0s-.52,0-1,.06c-.77,0-2,0-2.47.07-2,.1-4.95.16-7.23.26H4.77l-1.29,0,0,1c.05,1.24.06,2.5,0,3.66,0,1.46,0,3,0,4.48a2.3,2.3,0,0,0,.11.94c.17.05.24-.83.21-2.81l0-.81c0-2-.09-4-.14-6.1,0-.07,0-.14-.07-.2l.12,0,.32,0,.91,0,2.39,0c1.85,0,3.73,0,5.71-.06,2.58,0,5.2-.1,7.72-.13C24.52,3,28.09,3,31.72,2.87l9-.19,11.78-.23,16.39-.27L76.67,2,76.31,2c1.39-.05,2.93-.09,4.64-.12l9-.18c5-.1,9.83-.22,14.91-.3l3.88-.07.18,11c0,1.43.06,2.87,0,4.26,0,.32,0,.71,0,1.06,0,.55.07.9.11.68a9.32,9.32,0,0,0,.06-2.11c0-1.57-.07-3,0-4.45,0-.29,0-.8,0-1a9,9,0,0,1,0-1.56c0-.57,0-1.32,0-2S109,5.39,109,4.53c0-1.11,0-2.23,0-3.35l-13.52.24L69,1.87,63.11,2c-1.65,0-3.23,0-4.85.09-.63,0-1.5,0-1.81,0L57.85,2l15.78-.33L109,1h.27c.08,3.05.16,6.09.23,9.1a38.19,38.19,0,0,0,.32,4.54,13.68,13.68,0,0,1,.15,1.57l.16,3c0-.41,0-.6.06-.89,0-1.11.07-1.68.18-1.46s.11-.24.15-.76.1-1.1.19-1c0,.54,0,1,.06,1.53q.07,3.2.17,6.41c.06,2.36.13,2.74.29,1.5,0-.13,0-.34.05-.61,0-.85-.05-1.73-.07-2.6,0-1.06-.07-2.12-.1-3.17-.07-4.18-.26-8.07-.39-12.09,0-1.14-.06-1.2-.19-.86,0-.72-.05-1.44-.08-2.16,0-.92-.05-1.84-.08-2.76L103.9.46,98.34.55l-1.06,0c-.63,0-2,0-3.61,0l-5,.09-5,.09c-1.72,0-3.3.06-4.92.07-3,0-5.9.06-8.4.18-1.68,0-2.64-.08-5.57,0L66,1c-2.24.07-4.4.12-6.59.12s-4.5,0-7,.08c-4,.07-8,.13-9.53,0h-1l-2,0c-6.9.12-13.3.31-20.07.45l-4.89.11c-1.91,0-3.76.08-5.57.12l-5.53.14L1.5,2.12c0,.68.05,1.35.08,2,0,.45,0,.89.07,1.34,0,.89.09,1.78.14,2.67a16.45,16.45,0,0,0,.26,2.33c0,.31.07.62.08.93,0,.92.08,1.87.11,2.83s.06,2.12.09,3.19a6.07,6.07,0,0,1-.08,1.7,5.26,5.26,0,0,0-.12,1.12c0,.09,0,0-.07.07C2,20,2,19.57,2,19.09c0,.32-.05.49-.05.66,0,1.47,0,3,.11,4.4,0,.42,0,1,.07,1.51s0,.71,0,1,.05.69.07,1l.51,0,1.78,0c.11,0,.15,0,.15.05s0,0-.2,0c-.37,0-1.15.07-2.46.1,0-.3,0-.67-.05-1.09,0-.61-.05-1.31-.07-2,0-1.23-.08-2.23-.17-3.1,0-.44-.08-1-.11-1.53,0-.25-.05-.4-.08-.62a24,24,0,0,0,0,2.42l.09,2.64c0,1.14.06,2.28.1,3.43l9.81-.21.88,0L25,27.42c4.09-.08,8.13-.15,11.9-.27l5.2-.14c3.51,0,7.54-.05,11.35-.15,4.17-.1,8.37-.17,12.6-.26l10.78-.23a22,22,0,0,0,2.57-.12l.29-.06-4.91.09Z" transform="translate(3.9 4.28)"/><g class="cls-5"><g id="Group_6288" data-name="Group 6288"><path id="Path_8055" data-name="Path 8055" class="cls-1" d="M-3.31,32.23l119.68-2-.59-34.48L-3.9-2.24Z" transform="translate(3.9 4.28)"/></g></g></g><g id="CONCRETE" class="cls-2"><text class="cls-6" transform="translate(12.6 27.69) rotate(-0.99)">HERUPS</text></g></g></svg>